<svg width="24.300293" height="24.299805" viewBox="0 0 24.3003 24.2998" fill="none" xmlns="http://www.w3.org/2000/svg" xmlns:xlink="http://www.w3.org/1999/xlink">
	<defs/>
	<rect id="Cart" width="24.000000" height="24.000000" transform="translate(0.150024 0.149902)" fill="#FFFFFF" fill-opacity="0"/>
	<path id="Vector" d="M0.150024 0.949707C0.150024 0.737793 0.234253 0.53418 0.384399 0.384277C0.534424 0.234375 0.737915 0.149902 0.950073 0.149902L3.3501 0.149902C3.52856 0.149902 3.7019 0.209473 3.84253 0.319336C3.98303 0.429199 4.08289 0.583008 4.1261 0.756348L4.77417 3.3501L23.3505 3.3501C23.4688 3.3501 23.5857 3.37646 23.6925 3.42676C23.7994 3.47754 23.8938 3.55127 23.9689 3.64307C24.0438 3.73438 24.0975 3.84131 24.1262 3.95605C24.1549 4.0708 24.1577 4.19092 24.1345 4.30664L22.5344 12.3066C22.4995 12.481 22.4073 12.6392 22.2726 12.7554C22.1378 12.8716 21.9681 12.9395 21.7904 12.9482L6.755 13.7036L7.21411 16.1499L20.9504 16.1499C21.1626 16.1499 21.3661 16.2344 21.5161 16.3843C21.6661 16.5342 21.7505 16.7378 21.7505 16.9497C21.7505 17.1621 21.6661 17.3657 21.5161 17.5156C21.3661 17.6655 21.1626 17.75 20.9504 17.75L6.55017 17.75C6.36365 17.7495 6.18311 17.6846 6.03955 17.5654C5.89612 17.4458 5.79883 17.2803 5.76453 17.0972L3.36609 4.32129L2.72607 1.75L0.950073 1.75C0.737915 1.75 0.534424 1.66553 0.384399 1.51562C0.234253 1.36572 0.150024 1.16211 0.150024 0.949707ZM5.11328 4.94971L6.4574 12.1162L21.088 11.3818L22.3745 4.94971L5.11328 4.94971ZM8.15015 17.75C7.30151 17.75 6.48755 18.0869 5.88745 18.687C5.28723 19.2871 4.95007 20.1011 4.95007 20.9497C4.95007 21.7988 5.28723 22.6123 5.88745 23.2124C6.48755 23.813 7.30151 24.1499 8.15015 24.1499C8.9989 24.1499 9.81287 23.813 10.413 23.2124C11.0131 22.6123 11.3502 21.7988 11.3502 20.9497C11.3502 20.1011 11.0131 19.2871 10.413 18.687C9.81287 18.0869 8.9989 17.75 8.15015 17.75ZM19.3505 17.75C18.5017 17.75 17.6877 18.0869 17.0876 18.687C16.4875 19.2871 16.1504 20.1011 16.1504 20.9497C16.1504 21.7988 16.4875 22.6123 17.0876 23.2124C17.6877 23.813 18.5017 24.1499 19.3505 24.1499C20.1991 24.1499 21.0131 23.813 21.6132 23.2124C22.2134 22.6123 22.5504 21.7988 22.5504 20.9497C22.5504 20.1011 22.2134 19.2871 21.6132 18.687C21.0131 18.0869 20.1991 17.75 19.3505 17.75ZM8.15015 19.3501C8.57458 19.3501 8.98157 19.5186 9.28162 19.8184C9.58167 20.1187 9.75024 20.5254 9.75024 20.9497C9.75024 21.374 9.58167 21.7812 9.28162 22.0811C8.98157 22.3813 8.57458 22.5498 8.15015 22.5498C7.72583 22.5498 7.31885 22.3813 7.0188 22.0811C6.71875 21.7812 6.55017 21.374 6.55017 20.9497C6.55017 20.5254 6.71875 20.1187 7.0188 19.8184C7.31885 19.5186 7.72583 19.3501 8.15015 19.3501ZM19.3505 19.3501C19.7748 19.3501 20.1818 19.5186 20.4818 19.8184C20.7819 20.1187 20.9504 20.5254 20.9504 20.9497C20.9504 21.374 20.7819 21.7812 20.4818 22.0811C20.1818 22.3813 19.7748 22.5498 19.3505 22.5498C18.926 22.5498 18.519 22.3813 18.219 22.0811C17.9189 21.7812 17.7504 21.374 17.7504 20.9497C17.7504 20.5254 17.9189 20.1187 18.219 19.8184C18.519 19.5186 18.926 19.3501 19.3505 19.3501Z" fill="#2C4F3B" fill-opacity="1.000000" fill-rule="nonzero"/>
	<path id="Vector" d="M0.384399 0.384277C0.534424 0.234375 0.737915 0.149902 0.950073 0.149902L3.3501 0.149902C3.52856 0.149902 3.7019 0.209473 3.84253 0.319336C3.98303 0.429199 4.08289 0.583008 4.1261 0.756348L4.77417 3.3501L23.3505 3.3501C23.4688 3.3501 23.5857 3.37646 23.6925 3.42676C23.7994 3.47754 23.8938 3.55127 23.9689 3.64307C24.0438 3.73438 24.0975 3.84131 24.1262 3.95605C24.1549 4.0708 24.1577 4.19092 24.1345 4.30664L22.5344 12.3066C22.4995 12.481 22.4073 12.6392 22.2726 12.7554C22.1378 12.8716 21.9681 12.9395 21.7904 12.9482L6.755 13.7036L7.21411 16.1499L20.9504 16.1499C21.1626 16.1499 21.3661 16.2344 21.5161 16.3843C21.6661 16.5342 21.7505 16.7378 21.7505 16.9497C21.7505 17.1621 21.6661 17.3657 21.5161 17.5156C21.3661 17.6655 21.1626 17.75 20.9504 17.75L6.55017 17.75C6.36365 17.7495 6.18311 17.6846 6.03955 17.5654C5.89612 17.4458 5.79883 17.2803 5.76453 17.0972L3.36609 4.32129L2.72607 1.75L0.950073 1.75C0.737915 1.75 0.534424 1.66553 0.384399 1.51562C0.234253 1.36572 0.150024 1.16211 0.150024 0.949707C0.150024 0.737793 0.234253 0.53418 0.384399 0.384277ZM6.4574 12.1162L21.088 11.3818L22.3745 4.94971L5.11328 4.94971L6.4574 12.1162ZM5.88745 18.687C5.28723 19.2871 4.95007 20.1011 4.95007 20.9497C4.95007 21.7988 5.28723 22.6123 5.88745 23.2124C6.48755 23.813 7.30151 24.1499 8.15015 24.1499C8.9989 24.1499 9.81287 23.813 10.413 23.2124C11.0131 22.6123 11.3502 21.7988 11.3502 20.9497C11.3502 20.1011 11.0131 19.2871 10.413 18.687C9.81287 18.0869 8.9989 17.75 8.15015 17.75C7.30151 17.75 6.48755 18.0869 5.88745 18.687ZM17.0876 18.687C16.4875 19.2871 16.1504 20.1011 16.1504 20.9497C16.1504 21.7988 16.4875 22.6123 17.0876 23.2124C17.6877 23.813 18.5017 24.1499 19.3505 24.1499C20.1991 24.1499 21.0131 23.813 21.6132 23.2124C22.2134 22.6123 22.5504 21.7988 22.5504 20.9497C22.5504 20.1011 22.2134 19.2871 21.6132 18.687C21.0131 18.0869 20.1991 17.75 19.3505 17.75C18.5017 17.75 17.6877 18.0869 17.0876 18.687ZM9.28162 19.8184C9.58167 20.1187 9.75024 20.5254 9.75024 20.9497C9.75024 21.374 9.58167 21.7812 9.28162 22.0811C8.98157 22.3813 8.57458 22.5498 8.15015 22.5498C7.72583 22.5498 7.31885 22.3813 7.0188 22.0811C6.71875 21.7812 6.55017 21.374 6.55017 20.9497C6.55017 20.5254 6.71875 20.1187 7.0188 19.8184C7.31885 19.5186 7.72583 19.3501 8.15015 19.3501C8.57458 19.3501 8.98157 19.5186 9.28162 19.8184ZM20.4818 19.8184C20.7819 20.1187 20.9504 20.5254 20.9504 20.9497C20.9504 21.374 20.7819 21.7812 20.4818 22.0811C20.1818 22.3813 19.7748 22.5498 19.3505 22.5498C18.926 22.5498 18.519 22.3813 18.219 22.0811C17.9189 21.7812 17.7504 21.374 17.7504 20.9497C17.7504 20.5254 17.9189 20.1187 18.219 19.8184C18.519 19.5186 18.926 19.3501 19.3505 19.3501C19.7748 19.3501 20.1818 19.5186 20.4818 19.8184Z" stroke="#2C4F3B" stroke-opacity="1.000000" stroke-width="0.300000"/>
</svg>
