<svg width="116.779297" height="115.450073" viewBox="0 0 116.779 115.45" fill="none" xmlns="http://www.w3.org/2000/svg" xmlns:xlink="http://www.w3.org/1999/xlink">
	<desc>
			Created with Pixso.
	</desc>
	<defs/>
	<path id="Star 2" d="M41.8943 1.59875L48.104 39.3475L19.1755 14.3141L41.1489 45.6302L4.22363 35.6274L37.6086 54.3085L0 61.3175L38.1841 63.6633L7.34106 86.296L42.7617 71.842L24.793 105.616L50.4346 77.2247L48.8992 115.45L59.6829 78.7452L74.885 113.851L68.6753 76.1025L97.6038 101.136L75.6304 69.8198L112.556 79.8226L79.1707 61.1416L116.779 54.1325L78.595 51.7867L109.438 29.1539L74.0176 43.6079L91.9861 9.83435L66.3447 38.2253L67.8801 0L57.0964 36.7047L41.8943 1.59875Z" fill="#FFC8C8" fill-opacity="1.000000" fill-rule="evenodd"/>
</svg>
